HIERARCHY
ROOT Hips
{
  OFFSET 0 0 0
  CHANNELS 6 Xposition Yposition Zposition Zrotation Xrotation Yrotation
  JOINT Spine
  {
    OFFSET 0 10.1816 0.131521
    CHANNELS 3 Zrotation Xrotation Yrotation
    JOINT Spine1
    {
      OFFSET 0 10.0835 -1.0008
      CHANNELS 3 Zrotation Xrotation Yrotation
      JOINT Spine2
      {
        OFFSET 0 9.10001 -1.37342
        CHANNELS 3 Zrotation Xrotation Yrotation
        JOINT Neck
        {
          OFFSET 0 16.6717 -2.51617
          CHANNELS 3 Zrotation Xrotation Yrotation
          JOINT Head
          {
            OFFSET 0 9.61788 1.68501
            CHANNELS 3 Zrotation Xrotation Yrotation
            End Site
            {
              OFFSET 0 0 0
            }
          }
        }
        JOINT LeftShoulder
        {
          OFFSET 4.57045 10.946 -2.62799
          CHANNELS 3 Zrotation Xrotation Yrotation
          JOINT LeftArm
          {
            OFFSET 10.5924 -0.524583 -2.23212
            CHANNELS 3 Zrotation Xrotation Yrotation
            JOINT LeftForeArm
            {
              OFFSET 27.8415 -8.94286e-05 3.74589e-05
              CHANNELS 3 Zrotation Xrotation Yrotation
              JOINT LeftHand
              {
                OFFSET 28.3288 -1.74407e-05 3.78045e-05
                CHANNELS 3 Zrotation Xrotation Yrotation
                End Site
                {
                  OFFSET 0 0 0
                }
              }
            }
          }
        }
        JOINT RightShoulder
        {
          OFFSET -4.56997 10.9462 -2.62802
          CHANNELS 3 Zrotation Xrotation Yrotation
          JOINT RightArm
          {
            OFFSET -10.5928 -0.524798 -2.2321
            CHANNELS 3 Zrotation Xrotation Yrotation
            JOINT RightForeArm
            {
              OFFSET -27.8415 -3.30792e-05 1.16763e-05
              CHANNELS 3 Zrotation Xrotation Yrotation
              JOINT RightHand
              {
                OFFSET -28.3288 0 5.5816e-05
                CHANNELS 3 Zrotation Xrotation Yrotation
                End Site
                {
                  OFFSET 0 0 0
                }
              }
            }
          }
        }
      }
    }
  }
  JOINT LeftUpLeg
  {
    OFFSET 8.20778 -6.75171 -1.59956
    CHANNELS 3 Zrotation Xrotation Yrotation
    JOINT LeftLeg
    {
      OFFSET 0 -44.3705 0.284643
      CHANNELS 3 Zrotation Xrotation Yrotation
      JOINT LeftFoot
      {
        OFFSET 0 -44.4279 -2.98219
        CHANNELS 3 Zrotation Xrotation Yrotation
        JOINT LeftToeBase
        {
          OFFSET 0 -8.72867 10.7106
          CHANNELS 3 Zrotation Xrotation Yrotation
          End Site
          {
            OFFSET 0 0 0
          }
        }
      }
    }
  }
  JOINT RightUpLeg
  {
    OFFSET -8.2078 -6.75166 -1.59956
    CHANNELS 3 Zrotation Xrotation Yrotation
    JOINT RightLeg
    {
      OFFSET 0 -44.3705 0.286156
      CHANNELS 3 Zrotation Xrotation Yrotation
      JOINT RightFoot
      {
        OFFSET 0 -44.4277 -2.98379
        CHANNELS 3 Zrotation Xrotation Yrotation
        JOINT RightToeBase
        {
          OFFSET 0 -8.72867 10.7106
          CHANNELS 3 Zrotation Xrotation Yrotation
          End Site
          {
            OFFSET 0 0 0
          }
        }
      }
    }
  }
}
MOTION
Frames:	11
Frame Time:	0.0333333
0.198616 113.506 48.2829 1.77104 22.091 -2.32443 -0.529512 11.8135 2.05085 -1.0254 11.2702 3.92375 -1.4323 11.2543 3.9124 0.409181 -14.3022 -0.830508 1.28773 -14.9183 -3.629 8.32078 0.260083 -18.7599 -23.5896 -37.9813 -84.4852 -0.000226296 -1.02065e-05 -25.9084 38.8424 17.53 -8.07794 -6.81919 0.523758 22.7509 13.4282 -49.1692 66.047 -3.23791e-06 -1.24943e-06 10.2865 -38.7506 22.3395 17.0245 122.489 -86.1733 123.202 -167.218 84.6869 169.808 3.3577 -25.2168 0.62159 -3.79455e-06 2.23251 -8.49711e-07 -113.878 -80.7598 -121.212 145.926 86.2333 -141.892 -14.2759 -21.372 -2.04245 -5.47229e-06 2.41613 1.81071e-06 
0.165728 113.269 49.2343 1.65846 22.3345 -2.70597 -0.538226 11.8575 2.21281 -1.0605 11.3315 4.09478 -1.46809 11.3172 4.07613 0.610075 -13.9987 -0.792677 1.27581 -14.0977 -3.35582 8.51604 0.216824 -18.2907 -22.8143 -38.0381 -84.6016 -0.000204296 6.16715e-06 -25.8518 37.0572 18.1587 -8.15897 -6.17998 0.675767 23.2751 12.1203 -48.5522 65.3789 -5.01176e-06 5.28465e-07 10.3227 -38.2418 22.9855 17.9616 123.154 -85.7275 123.755 -170.266 83.4272 172.794 3.24979 -25.7356 0.619479 4.25396e-07 2.37837 5.16097e-09 -115.348 -80.8628 -122.816 154.09 85.2815 -149.852 -13.9729 -22.2366 -2.10856 -1.76298e-06 2.59227 1.28558e-06 
0.151521 113.561 50.0713 1.58361 22.7409 -2.97745 -0.542765 11.7021 2.27786 -1.0893 11.186 4.20783 -1.50454 11.1711 4.19009 0.888291 -13.7352 -0.741169 1.53719 -13.705 -2.93314 9.04889 0.113871 -18.0231 -21.549 -37.429 -83.4466 -0.000202528 6.47583e-07 -26.2912 36.8099 19.1624 -8.95463 -5.7596 0.778456 23.6769 12.7448 -47.8668 65.839 -3.68847e-06 6.71867e-07 10.0258 -38.5502 22.4231 18.0902 119.189 -85.7393 119.623 -170.754 83.2403 173.328 3.05698 -26.0635 0.593241 3.6917e-16 2.30099 3.9789e-16 -113.814 -81.1837 -121.334 154.481 85.2131 -150.045 -13.6778 -22.9617 -2.15442 -1.75709e-06 2.71572 -5.77009e-07 
0.153554 114.249 50.7325 1.46423 23.3818 -3.17845 -0.502623 11.446 2.33324 -1.08448 10.9557 4.27021 -1.49886 10.9406 4.25398 1.14202 -13.7658 -0.701546 1.86211 -13.6272 -2.57167 9.33874 0.0594681 -17.9704 -21.0177 -36.8106 -82.6238 -0.000205898 2.49727e-06 -26.6885 37.2411 19.0294 -9.46672 -5.34294 0.882021 23.9846 13.3661 -47.4487 66.2868 -7.52227e-07 7.81199e-06 9.73337 -38.6548 22.2141 18.0571 116.622 -85.6963 116.841 -170.228 83.6744 172.927 2.74918 -25.5522 0.52182 9.67529e-07 1.95622 1.46723e-06 -111.723 -81.5311 -119.367 149.992 85.7744 -145.308 -13.3602 -23.2526 -2.13941 -1.26852e-07 2.88377 -1.65951e-07 
0.173206 115.136 51.2577 1.55325 24.0311 -3.36376 -0.558272 11.2197 2.383 -1.14368 10.7512 4.29059 -1.54678 10.7314 4.28243 1.24166 -13.9856 -0.694312 2.26564 -13.6439 -2.43121 9.22151 0.0815693 -17.9347 -21.1292 -36.4753 -82.7488 -0.000208281 -2.51043e-07 -26.6684 36.7608 18.8667 -9.32943 -5.17731 0.916135 23.8426 13.7735 -47.0702 66.6516 1.04056e-05 2.60442e-06 9.49357 -38.359 22.5112 17.8331 112.781 -85.6621 113.12 -167.878 84.5089 170.677 2.6618 -24.6688 0.486307 2.78026e-06 1.64611 -4.57758e-07 -108.862 -81.827 -116.399 140.597 86.6094 -135.648 -13.0012 -23.3419 -2.08941 1.91246e-06 3.04838 -4.14178e-06 
0.26209 116.008 51.7515 1.59527 24.4318 -3.51157 -0.550475 11.058 2.43785 -1.13014 10.6033 4.31874 -1.52426 10.5829 4.31748 1.27936 -14.0916 -0.695753 2.49453 -13.6036 -2.38589 9.06174 0.111726 -17.9222 -21.4548 -36.2356 -83.1005 -0.000211105 1.45331e-06 -26.3896 36.1601 18.9661 -8.84872 -5.28956 0.881692 23.5886 13.9453 -46.6725 66.7368 4.44427e-06 9.58006e-07 9.33503 -38.2465 22.7506 17.7639 103.07 -85.7988 103.533 -164.181 85.4923 166.997 2.67656 -24.3876 0.483096 -1.6216e-06 1.51835 -4.90327e-07 -103.207 -82.0594 -110.666 124.406 87.3133 -119.097 -12.7567 -23.4785 -2.06465 -6.06591e-07 3.11248 3.28352e-06 
0.400258 116.766 52.222 1.50071 24.6772 -3.70127 -0.480667 10.893 2.47926 -1.05782 10.4487 4.33663 -1.44649 10.4311 4.33962 1.40616 -14.1334 -0.686435 2.47194 -13.3402 -2.28306 9.2121 0.083124 -17.8096 -21.8224 -35.9739 -83.2028 -0.00020098 -5.03765e-07 -26.1221 35.7949 18.8799 -8.02398 -5.34423 0.866582 23.5194 13.8204 -46.3076 66.6373 1.99424e-06 6.05229e-07 9.28126 -38.2501 23.1756 17.957 90.2677 -85.8134 90.6557 -159.744 86.399 162.504 2.54282 -24.6067 0.464327 1.2236e-07 1.47744 5.63363e-07 -96.5403 -82.3348 -104.009 102.513 87.6522 -96.8842 -12.5888 -23.6396 -2.05705 4.8486e-08 3.1258 2.91283e-06 
0.528448 117.393 52.6238 1.50336 24.8847 -3.95797 -0.53493 10.7294 2.47428 -1.08979 10.279 4.33634 -1.47829 10.2581 4.35139 1.68476 -14.2419 -0.68826 2.44225 -13.0608 -2.16443 9.87428 -0.0403673 -17.5625 -22.1779 -35.8364 -83.1223 -0.000199249 -9.92062e-07 -26.0574 35.0461 18.804 -6.88147 -5.10732 0.915782 23.3668 13.7997 -46.0591 66.9329 -1.94945e-06 1.97454e-06 9.2504 -38.2368 23.6026 18.2754 80.5025 -85.6427 80.8844 -153.782 87.1008 156.462 2.41039 -24.6839 0.442955 4.11711e-07 1.49237 2.4478e-07 -91.2908 -82.6538 -98.6142 81.7001 87.6645 -75.949 -12.3982 -23.6949 -2.03215 6.86074e-07 3.14729 2.71328e-06 
0.669971 117.877 52.9502 1.55239 24.9609 -4.16225 -0.599033 10.6286 2.42597 -1.13427 10.1752 4.3021 -1.52466 10.1505 4.32609 1.81538 -14.3233 -0.701553 2.49379 -12.8915 -2.15905 10.2474 -0.108594 -17.3863 -22.2461 -35.8879 -83.0742 -0.000206929 -5.33392e-06 -25.9833 34.5933 19.1127 -6.311 -4.99689 0.935464 23.2039 13.9572 -45.9837 67.418 4.84119e-06 -5.52115e-06 9.29051 -38.6048 23.7945 18.7835 72.6659 -85.5083 73.113 -147.328 87.5897 149.97 2.34296 -24.6864 0.431473 -8.26568e-07 1.66096 -2.03963e-07 -86.6778 -82.8186 -93.813 67.1767 87.4949 -61.3362 -12.284 -23.6486 -2.00789 1.28278e-06 3.12682 -1.59755e-07 
0.852602 118.215 53.198 1.52977 24.9591 -4.26934 -0.56892 10.548 2.39119 -1.09701 10.1063 4.25541 -1.48374 10.0836 4.27865 1.70261 -14.3544 -0.721513 2.55196 -12.8331 -2.29879 10.0566 -0.073587 -17.4115 -22.163 -35.9867 -83.1267 -0.000213771 1.25266e-06 -25.865 34.851 19.3061 -6.44537 -5.2346 0.879411 23.1145 14.222 -45.9935 67.7886 1.37071e-05 -3.83574e-06 9.43548 -39.2374 23.8536 19.34 65.5252 -85.439 65.9975 -141.528 87.9596 144.309 2.32213 -24.8441 0.431001 5.6667e-07 1.75441 5.41378e-07 -82.7028 -82.8694 -89.6879 58.654 87.3003 -52.7399 -12.1792 -23.6043 -1.98593 -1.90311e-06 3.09574 -3.49671e-07 
1.05216 118.438 53.3703 1.47907 24.9827 -4.32824 -0.537164 10.457 2.37937 -1.05596 10.025 4.23705 -1.44009 10.004 4.2614 1.65959 -14.4189 -0.741578 2.57305 -12.8271 -2.41355 10.01 -0.0646501 -17.3977 -22.4187 -35.9877 -83.3719 -0.000202844 -1.50606e-06 -25.9842 35.0115 19.1219 -6.35937 -5.37351 0.846536 23.0439 14.3685 -46.0537 68.0847 -5.20063e-06 -5.81292e-06 9.60115 -39.543 23.9489 19.779 60.1551 -85.3774 60.6648 -134.96 88.2538 138.062 2.39398 -25.0277 0.447467 -2.43125e-06 1.52226 9.22198e-07 -79.9947 -82.9371 -86.7935 53.0166 87.1497 -47.1576 -11.9914 -23.637 -1.95878 1.79055e-06 3.08976 1.4903e-06 
